<svg width="31" height="30" viewBox="0 0 31 30" fill="none" xmlns="http://www.w3.org/2000/svg">
<path d="M5.825 13.775V19.9875C5.825 22.2625 5.825 22.2625 7.975 23.7125L13.8875 27.125C14.775 27.6375 16.225 27.6375 17.1125 27.125L23.025 23.7125C25.175 22.2625 25.175 22.2625 25.175 19.9875V13.775C25.175 11.5 25.175 11.5 23.025 10.05L17.1125 6.63749C16.225 6.12499 14.775 6.12499 13.8875 6.63749L7.975 10.05C5.825 11.5 5.825 11.5 5.825 13.775Z" stroke="#047E31" stroke-width="1.5" stroke-linecap="round" stroke-linejoin="round"/>
<path d="M22.375 9.5375V6.25C22.375 3.75 21.125 2.5 18.625 2.5H12.375C9.875 2.5 8.625 3.75 8.625 6.25V9.45" stroke="#047E31" stroke-width="1.5" stroke-linecap="round" stroke-linejoin="round"/>
<path d="M16.2875 13.7375L17 14.85C17.1125 15.025 17.3625 15.2 17.55 15.25L18.825 15.575C19.6125 15.775 19.825 16.45 19.3125 17.075L18.475 18.0875C18.35 18.25 18.25 18.5375 18.2625 18.7375L18.3375 20.05C18.3875 20.8625 17.8125 21.275 17.0625 20.975L15.8375 20.4875C15.65 20.4125 15.3375 20.4125 15.15 20.4875L13.925 20.975C13.175 21.275 12.6 20.85 12.65 20.05L12.725 18.7375C12.7375 18.5375 12.6375 18.2375 12.5125 18.0875L11.675 17.075C11.1625 16.45 11.375 15.775 12.1625 15.575L13.4375 15.25C13.6375 15.2 13.8875 15.0125 13.9875 14.85L14.7 13.7375C15.15 13.0625 15.85 13.0625 16.2875 13.7375Z" stroke="#047E31" stroke-width="1.5" stroke-linecap="round" stroke-linejoin="round"/>
</svg>
