<svg width="31" height="30" viewBox="0 0 31 30" fill="none" xmlns="http://www.w3.org/2000/svg">
<path d="M15.5 25.625H9.25C5.5 25.625 3 23.75 3 19.375V10.625C3 6.25 5.5 4.375 9.25 4.375H21.75C25.5 4.375 28 6.25 28 10.625V14.375" stroke="#047E31" stroke-width="1.5" stroke-miterlimit="10" stroke-linecap="round" stroke-linejoin="round"/>
<path d="M21.75 11.25L17.8375 14.375C16.55 15.4 14.4375 15.4 13.15 14.375L9.25 11.25" stroke="#047E31" stroke-width="1.5" stroke-miterlimit="10" stroke-linecap="round" stroke-linejoin="round"/>
<path d="M24.5125 18.4625L20.0875 22.8875C19.9125 23.0625 19.75 23.3875 19.7125 23.625L19.475 25.3125C19.3875 25.925 19.8125 26.35 20.425 26.2625L22.1125 26.025C22.35 25.9875 22.6875 25.825 22.85 25.65L27.275 21.225C28.0375 20.4625 28.4 19.575 27.275 18.45C26.1625 17.3375 25.275 17.7 24.5125 18.4625Z" stroke="#047E31" stroke-width="1.5" stroke-miterlimit="10" stroke-linecap="round" stroke-linejoin="round"/>
<path d="M23.875 19.1C24.25 20.45 25.3 21.5 26.65 21.875" stroke="#047E31" stroke-width="1.5" stroke-miterlimit="10" stroke-linecap="round" stroke-linejoin="round"/>
</svg>
